<?xml version="1.0" encoding="utf-8"?>
<!-- Modified SVG with optimized viewBox for better sizing -->
<svg version="1.1" id="Layer_1" xmlns="http://www.w3.org/2000/svg" xmlns:xlink="http://www.w3.org/1999/xlink" x="0px" y="0px"
	 viewBox="390 269 60 60" style="enable-background:new 390 269 60 60;" xml:space="preserve">
<style type="text/css">
	.st0{fill:#FFFFFF;}
	.st1{fill:#75BEE9;}
	.st2{fill:#FF0000;}
	.st3{fill:#023F88;}
	.st4{fill-rule:evenodd;clip-rule:evenodd;fill:#FFFFFF;}
</style>
<g>
	<path class="st0" d="M449.29,297.64c0,15.66-12.69,28.35-28.35,28.35c-15.66,0-28.35-12.69-28.35-28.35
		c0-15.66,12.69-28.35,28.35-28.35C436.6,269.29,449.29,281.99,449.29,297.64z"/>
	<path class="st1" d="M449.29,297.64c0,15.66-12.69,28.35-28.35,28.35c-15.66,0-28.35-12.69-28.35-28.35
		c0-15.66,12.69-28.35,28.35-28.35C436.6,269.29,449.29,281.99,449.29,297.64z M420.95,278.2c-10.74,0-19.44,8.7-19.44,19.44
		c0,10.74,8.7,19.44,19.44,19.44c10.73,0,19.44-8.7,19.44-19.44C440.38,286.91,431.68,278.2,420.95,278.2z"/>
	<polyline class="st2" points="429.64,295.44 433.53,290.59 429.53,290.59 427.62,292.98 429.64,295.44 	"/>
	<path class="st3" d="M422.4,293.02c0.78,0,1.44,0.34,1.93,0.92c0.17,0.21,0.23,0.27,0.36,0.44c0.46,0.59,0.62,0.8,0.89,1.14
		c-0.27,0.33-0.43,0.55-0.89,1.15c-0.14,0.17-0.19,0.23-0.36,0.43c-0.49,0.58-1.15,0.91-1.93,0.91c-1.38,0-2.49-1.12-2.49-2.49
		C419.91,294.14,421.03,293.02,422.4,293.02 M420.47,300.71c-0.49-0.13-0.95-0.38-1.09-0.48c-1.57-0.98-2.61-2.69-2.61-4.72
		c0-3.12,2.52-5.63,5.63-5.63c1.54,0,3.06,0.59,4.28,2.01l0.07,0.08l0.05-0.04l-6.08-10.51l-11.16,19.35h10.91L420.47,300.71
		 M424.42,300.71l0,0.05h7.49v-0.06c0,0-0.11-0.02-0.23-0.04c-0.5-0.07-0.9-0.2-1.18-0.32c-1.13-0.46-2.08-1.39-2.89-2.34
		c0,0-0.6,0.79-1.13,1.37C425.69,300.25,424.83,300.61,424.42,300.71"/>
	<path class="st3" d="M431.57,307.89l0-5.18h1.04v2.83l1.3-1.38h1.22l-1.38,1.43l1.54,2.31h-1.25l-1.03-1.65l-0.4,0.4v1.25H431.57
		 M424.67,307.89h-1.1v-5.18h1.79c1.26-0.05,2.13,0.55,2.13,1.68c0,1.38-0.99,1.74-2.24,1.71c0,0-0.29,0-0.58,0V307.89
		 M424.67,303.6v1.6h0.77c0.57,0.02,1-0.23,0.99-0.8c-0.01-0.57-0.39-0.82-1.02-0.79H424.67z M428.47,305.33l-0.91-0.03
		c0.04-0.18,0.04-1.29,1.6-1.27c0.83,0.02,1.67,0.28,1.67,1.33v2.14c0,0.09,0.01,0.16,0.05,0.25c0.03,0.06,0.06,0.08,0.11,0.13
		h-1.06c0,0-0.04-0.08-0.06-0.25c-0.02-0.12-0.02-0.12-0.03-0.2c0,0-0.16,0.51-1,0.54c-0.72,0.03-1.46-0.39-1.51-1.1
		c-0.03-0.47,0.28-0.84,0.64-1.02c0.28-0.14,0.7-0.23,1.29-0.31c0.37-0.05,0.54-0.11,0.56-0.33c0.02-0.29-0.29-0.45-0.62-0.46
		C428.41,304.76,428.47,305.33,428.47,305.33 M429.85,306.51V306c0,0-0.02,0.03-0.11,0.07c-0.16,0.06-0.36,0.12-0.59,0.16
		c-0.28,0.06-0.82,0.17-0.81,0.55c0.01,0.4,0.42,0.49,0.74,0.46C429.56,307.19,429.82,306.9,429.85,306.51z M408.43,307.89v-4.26
		h1.58v-0.92h-4.24v0.92h1.56v4.26H408.43 M409.22,306.14c-0.06-1.13,0.68-2.11,1.84-2.09c2.05,0.03,1.95,2.26,1.95,2.26h-2.77
		c0,0,0.03,0.89,0.91,0.89c0.58,0,0.75-0.47,0.75-0.47l1.06,0.06c0,0-0.29,1.19-1.81,1.24
		C410.46,308.04,409.29,307.52,409.22,306.14 M411.08,304.86c-0.74,0-0.81,0.72-0.81,0.72h1.65
		C411.92,305.58,411.81,304.85,411.08,304.86z M415.91,307.89h1.03v-1.7c0-0.47,0.09-0.9,0.52-1.11c0.22-0.11,0.39-0.12,0.64-0.09
		v-0.88c-0.03-0.02-0.15-0.04-0.27-0.04c-0.33-0.02-0.65,0.17-0.84,0.51c-0.02,0.03-0.03,0.05-0.06,0.13l-0.04-0.54h-0.99V307.89
		 M413.08,304.88h0.52v1.91c0,0.31,0.03,0.7,0.33,0.92c0.3,0.22,0.7,0.19,1.08,0.18c0.16,0,0.32,0,0.32,0l0-0.76h-0.24
		c-0.17,0-0.26-0.01-0.35-0.08c-0.13-0.1-0.12-0.26-0.12-0.35v-1.82h0.69v-0.71h-0.69V303l-1.02-0.01v1.18l-0.52,0V304.88
		 M419.24,305.32l-0.91-0.03c0.03-0.18,0.03-1.3,1.59-1.27c0.83,0.02,1.67,0.28,1.67,1.34v2.14c0,0.09,0.01,0.16,0.05,0.25
		c0.03,0.06,0.06,0.08,0.12,0.13h-1.06c0,0-0.03-0.08-0.06-0.25c-0.02-0.12-0.02-0.12-0.03-0.2c0,0-0.16,0.51-1,0.54
		c-0.72,0.03-1.46-0.39-1.51-1.1c-0.03-0.47,0.28-0.84,0.64-1.02c0.28-0.14,0.7-0.23,1.29-0.31c0.36-0.05,0.54-0.11,0.56-0.32
		c0.02-0.3-0.28-0.46-0.62-0.47C419.17,304.75,419.24,305.32,419.24,305.32 M420.61,306.51v-0.52c0,0-0.02,0.03-0.11,0.07
		c-0.15,0.06-0.36,0.12-0.59,0.17c-0.27,0.06-0.82,0.17-0.81,0.55c0.02,0.4,0.42,0.49,0.74,0.45
		C420.33,307.19,420.59,306.9,420.61,306.51z"/>
	<g>
		<g>
			<path class="st3" d="M436.98,300.82c0.92,0,1.67,0.75,1.67,1.67c0,0.92-0.75,1.67-1.67,1.67c-0.92,0-1.68-0.75-1.68-1.67
				C435.3,301.57,436.06,300.82,436.98,300.82z M436.98,303.87c0.76,0,1.38-0.62,1.38-1.38c0-0.76-0.62-1.38-1.38-1.38
				c-0.76,0-1.38,0.62-1.38,1.38C435.6,303.25,436.22,303.87,436.98,303.87z M436.33,301.52h0.74c0.46,0,0.68,0.21,0.68,0.58
				c0,0.33-0.2,0.5-0.46,0.53l0.5,0.81h-0.37l-0.48-0.78h-0.26v0.78h-0.35V301.52z M436.69,302.35h0.26c0.22,0,0.46-0.01,0.46-0.27
				c0-0.26-0.24-0.27-0.46-0.27h-0.26V302.35z"/>
		</g>
	</g>
	<path class="st4" d="M398.89,294.15c-0.01,0.78-0.65,1.41-1.45,1.4c-0.79-0.01-1.41-0.66-1.39-1.45c0.02-0.79,0.66-1.41,1.44-1.4
		C398.29,292.71,398.91,293.36,398.89,294.15"/>
	<path class="st4" d="M443,294.15c0.02,0.78,0.65,1.41,1.45,1.4c0.79-0.01,1.41-0.66,1.39-1.45c-0.01-0.79-0.66-1.41-1.44-1.4
		C443.6,292.71,442.99,293.36,443,294.15"/>
	<g>
		<path class="st0" d="M401.34,306.21l0.64,0.98l-2.2,2.36l0.01,0.01l3.18-0.85l0.54,0.84l-2.14,2.6l0.01,0.01l3.14-1.06l0.59,0.91
			l-4.87,1.46l-0.52-0.8l2.25-2.74l-0.01-0.01l-3.42,0.94l-0.5-0.77L401.34,306.21z"/>
		<path class="st0" d="M405.67,312.37l0.82,0.7l-1.18,1.39l1.59,1.35l1.18-1.39l0.82,0.7l-3.16,3.72l-0.82-0.7l1.37-1.61l-1.59-1.35
			l-1.37,1.61l-0.82-0.7L405.67,312.37z"/>
		<path class="st0" d="M410.79,316.16l0.79,0.41l-0.38,5.31l-1.08-0.56l0.11-1.11l-1.68-0.88l-0.84,0.73l-1.05-0.55L410.79,316.16z
			 M410.5,317.61l-1.23,1.07l1.06,0.55L410.5,317.61z"/>
		<path class="st0" d="M413.98,318.58l-1.33-0.41l0.28-0.91l3.69,1.12l-0.28,0.91l-1.33-0.41l-1.14,3.76l-1.03-0.31L413.98,318.58z"
			/>
		<path class="st0" d="M417.82,320.48l-0.87-0.12l0.78-1.85l0.98,0.14L417.82,320.48z"/>
		<path class="st0" d="M421.77,319.95c-0.17-0.22-0.51-0.33-0.77-0.34c-0.3,0-0.73,0.13-0.73,0.49c-0.01,0.89,2.24,0.35,2.21,2.06
			c-0.02,1.09-0.9,1.59-1.91,1.58c-0.63-0.01-1.18-0.2-1.63-0.64l0.78-0.83c0.22,0.29,0.57,0.47,0.93,0.48
			c0.35,0.01,0.75-0.15,0.75-0.5c0.01-0.9-2.28-0.45-2.26-2.08c0.02-1.04,0.93-1.57,1.88-1.55c0.55,0.01,1.08,0.16,1.49,0.53
			L421.77,319.95z"/>
		<path class="st0" d="M431.06,321.31c-0.5,0.51-1.12,0.86-1.8,1.08c-1.45,0.48-2.81-0.13-3.3-1.61c-0.49-1.49,0.25-2.78,1.7-3.26
			c0.73-0.24,1.44-0.29,2.04-0.01l-0.46,1.02c-0.37-0.2-0.75-0.24-1.27-0.07c-0.87,0.29-1.23,1.1-0.95,1.97
			c0.29,0.86,1.06,1.3,1.93,1.02c0.45-0.15,0.73-0.38,0.89-0.54l-0.25-0.75l-0.83,0.27l-0.31-0.94l1.81-0.6L431.06,321.31z"/>
		<path class="st0" d="M432.28,315.3c1.28-0.82,2.75-0.58,3.6,0.73c0.85,1.32,0.45,2.75-0.83,3.58c-1.28,0.82-2.75,0.58-3.6-0.73
			C430.61,317.57,431,316.13,432.28,315.3z M434.52,318.78c0.77-0.5,0.92-1.38,0.42-2.14c-0.49-0.76-1.35-1-2.12-0.5
			c-0.77,0.5-0.92,1.38-0.42,2.14C432.89,319.04,433.75,319.27,434.52,318.78z"/>
		<path class="st0" d="M436.45,311.79c1.03-1.12,2.51-1.27,3.67-0.21c1.16,1.05,1.14,2.55,0.12,3.67c-1.03,1.12-2.51,1.27-3.67,0.21
			C435.41,314.4,435.42,312.91,436.45,311.79z M439.5,314.57c0.62-0.68,0.53-1.56-0.14-2.18c-0.67-0.61-1.56-0.62-2.18,0.06
			c-0.62,0.68-0.53,1.56,0.14,2.18C437.99,315.25,438.88,315.25,439.5,314.57z"/>
		<path class="st0" d="M438.62,309.38l0.75-1.42c0.73-1.39,1.94-2.24,3.52-1.41c1.39,0.74,1.54,2.27,0.86,3.56l-0.82,1.55
			L438.62,309.38z M442.56,310.25l0.26-0.49c0.47-0.88,0.48-1.72-0.5-2.24c-0.85-0.45-1.6,0.02-2.03,0.82l-0.3,0.56L442.56,310.25z"
			/>
	</g>
	<g>
		<g>
			<path class="st0" d="M401.49,280.01l1.3-1.26c0.73-0.71,1.56-1.06,2.36-0.23c0.8,0.82,0.48,1.61-0.25,2.33l-0.56,0.55l1.33,1.36
				l-0.77,0.75L401.49,280.01z M403.7,280.74l0.51-0.5c0.27-0.26,0.45-0.62,0.14-0.95c-0.35-0.36-0.77-0.05-1.06,0.23l-0.4,0.38
				L403.7,280.74z"/>
			<path class="st0" d="M405.67,276.27l1.61-0.99c0.85-0.52,1.74-0.67,2.34,0.29c0.36,0.58,0.33,1.23-0.19,1.69l2.14,1.1l-1.09,0.68
				l-1.89-1.12l-0.45,0.28l1.03,1.66l-0.91,0.56L405.67,276.27z M407.65,277.42l0.54-0.33c0.33-0.21,0.76-0.49,0.48-0.94
				c-0.26-0.42-0.67-0.25-1-0.04l-0.6,0.37L407.65,277.42z"/>
			<path class="st0" d="M413.26,272.46c1.46-0.44,2.81,0.19,3.26,1.68c0.46,1.49-0.31,2.77-1.77,3.22
				c-1.46,0.44-2.81-0.19-3.26-1.69C411.04,274.18,411.81,272.9,413.26,272.46z M414.47,276.41c0.88-0.27,1.26-1.08,0.99-1.94
				c-0.27-0.87-1.03-1.33-1.91-1.06c-0.88,0.27-1.26,1.08-0.99,1.95C412.83,276.22,413.59,276.68,414.47,276.41z"/>
			<path class="st0" d="M418.89,272.47l-1.39,0.08l-0.06-0.94l3.85-0.24l0.06,0.95l-1.39,0.08l0.24,3.92l-1.07,0.07L418.89,272.47z"
				/>
			<path class="st0" d="M423.3,271.49l3.28,0.5l-0.15,0.98l-2.21-0.34l-0.14,0.9l2.09,0.32l-0.15,0.98l-2.09-0.32l-0.15,0.98
				l2.34,0.35l-0.15,0.98l-3.4-0.52L423.3,271.49z"/>
			<path class="st0" d="M431.5,275.01c-0.1-0.32-0.34-0.57-0.71-0.72c-0.75-0.3-1.56,0.08-1.9,0.93c-0.34,0.84-0.03,1.68,0.69,1.97
				c0.4,0.16,0.8,0.12,1.13-0.11l0.58,0.95c-0.59,0.39-1.33,0.38-1.95,0.13c-1.41-0.57-2.07-1.91-1.48-3.36
				c0.59-1.45,1.99-1.96,3.4-1.39c0.5,0.21,1.07,0.63,1.26,1.28L431.5,275.01z"/>
			<path class="st0" d="M434.71,276.47l-1.15-0.79l0.53-0.78l3.19,2.17l-0.54,0.79l-1.15-0.79l-2.21,3.25l-0.89-0.61L434.71,276.47z
				"/>
			<path class="st0" d="M439.6,280.96c0.04-0.28-0.12-0.6-0.31-0.79c-0.21-0.22-0.6-0.43-0.86-0.17c-0.64,0.62,1.33,1.84,0.1,3.02
				c-0.78,0.76-1.76,0.49-2.46-0.24c-0.44-0.45-0.69-0.98-0.7-1.61l1.13-0.03c-0.05,0.36,0.07,0.74,0.32,0.99
				c0.25,0.26,0.64,0.42,0.88,0.18c0.64-0.62-1.29-1.93-0.12-3.06c0.75-0.72,1.77-0.45,2.43,0.24c0.38,0.4,0.65,0.88,0.67,1.43
				L439.6,280.96z"/>
		</g>
	</g>
</g>
</svg>